<svg width="46" height="56" viewBox="0 0 46 56" fill="none" xmlns="http://www.w3.org/2000/svg">
<path d="M40.4197 18.6322C38.7141 15.5941 36.9025 12.6175 34.9885 9.70809L33.6472 7.67306L32.2894 9.64137C32.2066 9.77482 30.4017 12.4771 28.2822 16.0801C28.2444 15.9988 28.2001 15.9207 28.1498 15.8465C23.9935 8.47373 19.6883 2.10175 19.6883 2.03503L18.3636 0L17.0223 2.03503C17.0223 2.03503 12.7502 8.47373 8.57742 15.9133C2.88124 26.0717 3.6092e-05 33.3278 3.6092e-05 37.4646C-0.00829357 41.6985 1.42541 45.8072 4.06176 49.1047C6.69812 52.4021 10.3776 54.6888 14.4858 55.5828C18.594 56.4769 22.8824 55.9243 26.6349 54.0172C30.3874 52.1101 33.377 48.9641 35.1044 45.1043C38.1048 44.7379 40.8688 43.2791 42.8756 41.0025C44.8824 38.7258 45.9937 35.7886 46 32.744C46 29.9416 44.1785 25.3211 40.4197 18.6322ZM18.3636 52.6939C14.3554 52.6895 10.5126 51.0836 7.67835 48.2285C4.84412 45.3734 3.24992 41.5023 3.24553 37.4646C3.24553 30.8757 13.1807 14.1118 18.3636 5.93828C20.5659 9.37448 23.6127 14.362 26.3945 19.4662C23 25.7048 21.3442 30.0584 21.3442 32.744C21.3497 35.67 22.376 38.501 24.2435 40.7421C26.1111 42.9831 28.7011 44.4917 31.5608 45.0042C30.2346 47.3489 28.3138 49.2964 25.9949 50.6476C23.6761 51.9988 21.0424 52.705 18.3636 52.6939ZM36.2469 41.5013C35.3886 41.767 34.4956 41.9019 33.5976 41.9016C33.3274 41.9186 33.0564 41.9186 32.7862 41.9016C30.527 41.6901 28.4271 40.6381 26.8963 38.9511C25.3655 37.264 24.5136 35.063 24.5069 32.7773C24.5069 30.6756 26.1627 26.8891 28.1994 22.9858C28.7955 21.8349 29.4413 20.6672 30.0871 19.533C31.3125 17.3478 32.5709 15.2961 33.6141 13.6614C34.6242 15.3294 36.0979 17.6647 37.5551 20.3336C42.0425 28.3236 42.7214 31.593 42.7214 32.8274C42.6984 34.7789 42.0582 36.6722 40.8938 38.2321C39.7295 39.792 38.1017 40.9372 36.2469 41.5013Z" fill="white"/>
</svg>
