<svg width="48" height="48" viewBox="0 0 48 48" fill="none" xmlns="http://www.w3.org/2000/svg">
<path d="M15.772 13.8151H4.0318C3.50382 13.8151 3.07185 14.2471 3.07185 14.7751V19.9588H23.4228V19.0853L17.3271 19.1237H17.3079C16.06 19.1237 14.9273 18.2789 14.5529 17.079C14.1881 15.7831 14.6873 14.4967 15.772 13.8151ZM0.0086394 31.4024H17.9021V38.4773H0.0086394V31.4024ZM0.959952 47.999H7.62202V40.3962H0.00959974V47.0199C0.00959974 47.0199 0 47.0295 0 47.0391C0 47.5671 0.431978 47.999 0.959952 47.999ZM9.54096 21.8797H28.1736V29.4825H9.54096V21.8797ZM9.54096 40.3972H28.1736V48H9.54096V40.3972ZM0.00959974 29.4816H7.62202V21.8787H0.959952C0.431978 21.8787 0 22.3107 0 22.8387C0 22.8483 0.00959974 22.8579 0.00959974 22.8675V29.4816ZM47.9976 47.0391V40.3962H30.0945V47.999H47.0377C47.5656 47.999 47.9976 47.5671 47.9976 47.0391ZM40.3746 31.4024H47.9966V38.4773H40.3746V31.4024ZM19.8221 31.4024H38.4547V38.4773H19.8221V31.4024Z" fill="#EEEEEE"/>
<path d="M47.9976 22.8387C47.9976 22.3107 47.5656 21.8787 47.0376 21.8787H30.0945V29.4816H47.9976V22.8387ZM34.0975 6.04914V9.50496L27.8194 8.7274C27.5986 8.7082 27.3778 8.7562 27.1858 8.8714L16.7992 15.4279C16.4344 15.6583 16.2712 16.0998 16.3864 16.5126C16.5112 16.9158 16.8856 17.2038 17.3079 17.2038H17.3175L29.9217 17.127C30.1905 17.1174 30.4401 17.0118 30.6225 16.8102L35.739 11.2713C35.9118 11.0889 36.0174 10.8585 36.0174 10.5897V6.7499L36.5166 6.58671L36.7086 7.22028C36.7758 7.46027 36.9486 7.67145 37.1693 7.78665C37.3929 7.90732 37.6551 7.93491 37.8989 7.86345L46.0201 5.43477C46.3696 5.33182 46.695 5.15985 46.9769 4.92902C47.2589 4.69819 47.4917 4.41318 47.6616 4.09083C48.0168 3.43807 48.0936 2.6893 47.8824 1.97894C47.7795 1.6294 47.6075 1.30404 47.3767 1.02209C47.1458 0.740147 46.8608 0.507336 46.5385 0.337421C45.8857 -0.0177615 45.1369 -0.0945577 44.4266 0.116632L36.315 2.54531C35.8062 2.6989 35.5182 3.22688 35.6718 3.73565L35.9694 4.7532L34.7695 5.13718C34.3663 5.27158 34.0975 5.63636 34.0975 6.04914Z" fill="#EEEEEE"/>
</svg>
