<svg width="52" height="53" viewBox="0 0 52 53" fill="none" xmlns="http://www.w3.org/2000/svg">
<path d="M51.5094 48.0723H49.5471C49.417 48.0723 49.2922 48.0206 49.2002 47.9286C49.1082 47.8366 49.0566 47.7118 49.0566 47.5817C49.0566 47.4516 49.1082 47.3268 49.2002 47.2348C49.2922 47.1428 49.417 47.0911 49.5471 47.0911H51.5094C51.6395 47.0911 51.7643 47.1428 51.8563 47.2348C51.9483 47.3268 51.9999 47.4516 51.9999 47.5817C51.9999 47.7118 51.9483 47.8366 51.8563 47.9286C51.7643 48.0206 51.6395 48.0723 51.5094 48.0723ZM2.45303 48.0723H0.490777C0.360672 48.0723 0.235895 48.0206 0.143896 47.9286C0.0518979 47.8366 0.000213623 47.7118 0.000213623 47.5817C0.000213623 47.4516 0.0518979 47.3268 0.143896 47.2348C0.235895 47.1428 0.360672 47.0911 0.490777 47.0911H2.45303C2.58314 47.0911 2.70791 47.1428 2.79991 47.2348C2.89191 47.3268 2.94359 47.4516 2.94359 47.5817C2.94359 47.7118 2.89191 47.8366 2.79991 47.9286C2.70791 48.0206 2.58314 48.0723 2.45303 48.0723Z" fill="white"/>
<path d="M49.5471 48.0723H26.0001C25.87 48.0723 25.7452 48.0206 25.6532 47.9286C25.5612 47.8366 25.5095 47.7118 25.5095 47.5817C25.5095 47.4516 25.5612 47.3268 25.6532 47.2348C25.7452 47.1428 25.87 47.0912 26.0001 47.0912H49.0566V22.0724C49.0566 21.9423 49.1082 21.8175 49.2002 21.7255C49.2922 21.6335 49.417 21.5818 49.5471 21.5818C49.6772 21.5818 49.802 21.6335 49.894 21.7255C49.986 21.8175 50.0377 21.9423 50.0377 22.0724V47.5817C50.0377 47.7118 49.986 47.8366 49.894 47.9286C49.802 48.0206 49.6772 48.0723 49.5471 48.0723ZM8.33979 48.0723H2.45303C2.32292 48.0723 2.19814 48.0206 2.10615 47.9286C2.01415 47.8366 1.96246 47.7118 1.96246 47.5817V22.0724C1.96246 21.9423 2.01415 21.8175 2.10615 21.7255C2.19814 21.6335 2.32292 21.5818 2.45303 21.5818C2.58313 21.5818 2.70791 21.6335 2.79991 21.7255C2.89191 21.8175 2.94359 21.9423 2.94359 22.0724V47.0912H8.33979C8.46989 47.0912 8.59467 47.1428 8.68667 47.2348C8.77867 47.3268 8.83035 47.4516 8.83035 47.5817C8.83035 47.7118 8.77867 47.8366 8.68667 47.9286C8.59467 48.0206 8.46989 48.0723 8.33979 48.0723Z" fill="white"/>
<path d="M26.0001 48.0723H18.1511C18.021 48.0723 17.8962 48.0206 17.8042 47.9286C17.7122 47.8366 17.6605 47.7118 17.6605 47.5817C17.6605 47.4516 17.7122 47.3268 17.8042 47.2348C17.8962 47.1428 18.021 47.0912 18.1511 47.0912H25.5095V22.563H8.83037V47.5817C8.83037 47.7118 8.77869 47.8366 8.68669 47.9286C8.59469 48.0206 8.46991 48.0723 8.33981 48.0723C8.2097 48.0723 8.08492 48.0206 7.99293 47.9286C7.90093 47.8366 7.84924 47.7118 7.84924 47.5817V22.0724C7.84924 21.9423 7.90093 21.8175 7.99293 21.7255C8.08492 21.6335 8.2097 21.5818 8.33981 21.5818H26.0001C26.1302 21.5818 26.255 21.6335 26.347 21.7255C26.439 21.8175 26.4907 21.9423 26.4907 22.0724V47.5817C26.4907 47.7118 26.439 47.8366 26.347 47.9286C26.255 48.0206 26.1302 48.0723 26.0001 48.0723Z" fill="white"/>
<path d="M18.1511 51.9968C18.0897 52.0107 18.026 52.0107 17.9647 51.9968L8.15339 48.0723C8.05642 48.0344 7.97435 47.9662 7.9195 47.8777C7.86466 47.7892 7.84 47.6854 7.84924 47.5817V22.0724C7.84816 21.9925 7.86741 21.9137 7.90516 21.8434C7.94292 21.773 7.99796 21.7134 8.06509 21.6701C8.13077 21.622 8.20804 21.592 8.28904 21.5834C8.37004 21.5748 8.45187 21.5878 8.52622 21.6211L18.3375 25.5456C18.4278 25.5813 18.5053 25.6435 18.5596 25.7241C18.6139 25.8046 18.6425 25.8998 18.6416 25.9969V51.5062C18.6427 51.5861 18.6235 51.6649 18.5857 51.7352C18.548 51.8056 18.4929 51.8652 18.4258 51.9085C18.346 51.9665 18.2497 51.9975 18.1511 51.9968ZM8.83037 47.2481L17.6605 50.7802V26.3305L8.83037 22.7984V47.2481ZM51.5094 21.3954C51.4241 21.3958 51.3399 21.3756 51.2641 21.3366L26.0001 6.63927L0.736071 21.3562C0.661495 21.3992 0.576901 21.4219 0.490789 21.4219C0.404677 21.4219 0.320082 21.3992 0.245507 21.3562C0.168362 21.3094 0.105014 21.2429 0.0619242 21.1636C0.0188342 21.0844 -0.00245596 20.9951 0.000225311 20.9049V15.3321C-0.0009895 15.2448 0.0211008 15.1588 0.0642176 15.0829C0.107334 15.007 0.169916 14.944 0.245507 14.9004L25.7548 0.065723C25.8294 0.0226671 25.914 0 26.0001 0C26.0862 0 26.1708 0.0226671 26.2454 0.065723L51.7547 14.9004C51.8303 14.944 51.8928 15.007 51.936 15.0829C51.9791 15.1588 52.0012 15.2448 52 15.3321V20.9049C51.9992 20.9918 51.9763 21.077 51.9334 21.1526C51.8904 21.2281 51.8289 21.2914 51.7547 21.3366C51.6788 21.3756 51.5947 21.3958 51.5094 21.3954ZM26.0001 5.57966C26.0868 5.57796 26.1721 5.60184 26.2454 5.64834L51.0188 20.0513V15.6068L26.0001 1.05666L0.981352 15.6068V20.0513L25.7548 5.64834C25.828 5.60184 25.9134 5.57796 26.0001 5.57966ZM43.6604 38.261H31.8868C31.7567 38.261 31.632 38.2093 31.54 38.1173C31.448 38.0253 31.3963 37.9005 31.3963 37.7704V22.0724C31.3963 21.9423 31.448 21.8175 31.54 21.7255C31.632 21.6335 31.7567 21.5818 31.8868 21.5818H43.6604C43.7905 21.5818 43.9153 21.6335 44.0073 21.7255C44.0993 21.8175 44.1509 21.9423 44.1509 22.0724V37.7704C44.1509 37.9005 44.0993 38.0253 44.0073 38.1173C43.9153 38.2093 43.7905 38.261 43.6604 38.261ZM32.3774 37.2799H43.1698V22.563H32.3774V37.2799Z" fill="white"/>
<path d="M15.2077 41.2043C15.0776 41.2043 14.9528 41.1527 14.8608 41.0607C14.7688 40.9687 14.7172 40.8439 14.7172 40.7138V36.7893C14.7172 36.6592 14.7688 36.5344 14.8608 36.4424C14.9528 36.3504 15.0776 36.2987 15.2077 36.2987C15.3378 36.2987 15.4626 36.3504 15.5546 36.4424C15.6466 36.5344 15.6983 36.6592 15.6983 36.7893V40.7138C15.6983 40.8439 15.6466 40.9687 15.5546 41.0607C15.4626 41.1527 15.3378 41.2043 15.2077 41.2043ZM44.6415 38.261H30.9058C30.7757 38.261 30.6509 38.2093 30.5589 38.1173C30.4669 38.0253 30.4152 37.9005 30.4152 37.7704C30.4152 37.6403 30.4669 37.5155 30.5589 37.4235C30.6509 37.3315 30.7757 37.2798 30.9058 37.2798H44.6415C44.7716 37.2798 44.8964 37.3315 44.9884 37.4235C45.0804 37.5155 45.1321 37.6403 45.1321 37.7704C45.1321 37.9005 45.0804 38.0253 44.9884 38.1173C44.8964 38.2093 44.7716 38.261 44.6415 38.261Z" fill="white"/>
</svg>
