<svg width="36" height="45" viewBox="0 0 36 45" fill="none" xmlns="http://www.w3.org/2000/svg">
<path d="M30 0H14C12.4087 0 10.8826 0.646508 9.75736 1.7973C8.63214 2.94809 8 4.5089 8 6.13636H6C4.4087 6.13636 2.88258 6.78287 1.75736 7.93366C0.632141 9.08445 0 10.6453 0 12.2727V18.4091C0 20.0366 0.632141 21.5974 1.75736 22.7482C2.88258 23.8989 4.4087 24.5455 6 24.5455H18C18.5304 24.5455 19.0391 24.761 19.4142 25.1446C19.7893 25.5282 20 26.0484 20 26.5909V28.6364C18.9391 28.6364 17.9217 29.0674 17.1716 29.8346C16.4214 30.6018 16 31.6423 16 32.7273V40.9091C16 41.9941 16.4214 43.0346 17.1716 43.8018C17.9217 44.569 18.9391 45 20 45H24C25.0609 45 26.0783 44.569 26.8284 43.8018C27.5786 43.0346 28 41.9941 28 40.9091V32.7273C28 31.6423 27.5786 30.6018 26.8284 29.8346C26.0783 29.0674 25.0609 28.6364 24 28.6364V26.5909C24 24.9634 23.3679 23.4026 22.2426 22.2518C21.1174 21.1011 19.5913 20.4545 18 20.4545H6C5.46957 20.4545 4.96086 20.239 4.58579 19.8554C4.21071 19.4718 4 18.9516 4 18.4091V12.2727C4 11.7302 4.21071 11.21 4.58579 10.8264C4.96086 10.4428 5.46957 10.2273 6 10.2273H8C8 11.8547 8.63214 13.4155 9.75736 14.5663C10.8826 15.7171 12.4087 16.3636 14 16.3636H30C31.5913 16.3636 33.1174 15.7171 34.2426 14.5663C35.3679 13.4155 36 11.8547 36 10.2273V6.13636C36 4.5089 35.3679 2.94809 34.2426 1.7973C33.1174 0.646508 31.5913 0 30 0ZM24 32.7273V40.9091H20V32.7273H24ZM32 10.2273C32 10.7698 31.7893 11.29 31.4142 11.6736C31.0391 12.0572 30.5304 12.2727 30 12.2727H14C13.4696 12.2727 12.9609 12.0572 12.5858 11.6736C12.2107 11.29 12 10.7698 12 10.2273V6.13636C12 5.59388 12.2107 5.07361 12.5858 4.69001C12.9609 4.30641 13.4696 4.09091 14 4.09091H30C30.5304 4.09091 31.0391 4.30641 31.4142 4.69001C31.7893 5.07361 32 5.59388 32 6.13636V10.2273Z" fill="white"/>
</svg>
