<svg width="51" height="46" viewBox="0 0 51 46" fill="none" xmlns="http://www.w3.org/2000/svg">
<path d="M25.5 0C25.5 0 9.7257 13.6467 0.91035 21.0373C0.629842 21.2823 0.403844 21.5836 0.247014 21.9217C0.0901847 22.2598 0.00602722 22.6272 0 23C0 23.6778 0.26866 24.3278 0.746878 24.8071C1.2251 25.2863 1.8737 25.5556 2.55 25.5556H7.65V43.4444C7.65 44.1222 7.91866 44.7722 8.39688 45.2515C8.8751 45.7308 9.5237 46 10.2 46H17.85C18.5263 46 19.1749 45.7308 19.6531 45.2515C20.1313 44.7722 20.4 44.1222 20.4 43.4444V33.2222H30.6V43.4444C30.6 44.1222 30.8687 44.7722 31.3469 45.2515C31.8251 45.7308 32.4737 46 33.15 46H40.8C41.4763 46 42.1249 45.7308 42.6031 45.2515C43.0813 44.7722 43.35 44.1222 43.35 43.4444V25.5556H48.45C49.1263 25.5556 49.7749 25.2863 50.2531 24.8071C50.7313 24.3278 51 23.6778 51 23C50.9964 22.62 50.9067 22.2459 50.7374 21.9058C50.5682 21.5658 50.324 21.2688 50.0234 21.0373C41.2692 13.6467 25.5 0 25.5 0Z" fill="#EEEEEE"/>
</svg>
